<svg width="211" height="31" viewBox="0 0 211 31" fill="none" xmlns="http://www.w3.org/2000/svg">
<mask id="mask0_122_757" style="mask-type:alpha" maskUnits="userSpaceOnUse" x="0" y="0" width="34" height="31">
<path d="M33.7955 11.2747C33.7955 4.27622 30.8239 -1.74952 17.8568 0.466224L7.78026 2.41175L0 3.89792V10.7883L7.61817 9.35622L10.4007 8.84281L15.3984 7.89707L19.0454 7.19452C23.5299 6.4109 26.2854 7.92409 26.2584 12.0313C26.2313 15.8683 23.6379 18.9758 18.0459 20.3539L15.4254 21.0564L11.4002 21.9751L0 24.299V30.73L14.8041 27.6226C24.4214 25.65 33.7955 22.8939 33.7955 11.2747Z" fill="white"/>
</mask>
<g mask="url(#mask0_122_757)">
<path d="M1.5 8.98009V5.13852L8.0617 3.88512L8.06462 3.88455L18.1251 1.94211C24.4121 0.87048 27.8286 1.87723 29.6914 3.53551C31.5728 5.21039 32.2955 7.92232 32.2955 11.2747C32.2955 16.5801 30.2045 19.7098 27.0683 21.822C23.7991 24.0238 19.3297 25.1631 14.5027 26.1532L14.5027 26.1532L14.496 26.1546L1.5 28.8825V25.5241L11.6998 23.4449L11.717 23.4414L11.734 23.4375L15.7592 22.5188L15.7867 22.5125L15.8139 22.5053L18.4198 21.8066C21.3999 21.07 23.7288 19.8378 25.329 18.1452C26.9529 16.4275 27.7423 14.3217 27.7583 12.0419L27.7583 12.0412C27.7741 9.63684 26.9542 7.66329 25.1496 6.51373C23.4445 5.42759 21.1872 5.29754 18.7872 5.71691L18.7744 5.71914L18.7617 5.7216L15.1195 6.42323L15.1147 6.42415L10.1252 7.36833L7.346 7.88112L7.34599 7.88111L7.34104 7.88204L1.5 8.98009Z" stroke="white" stroke-width="3"/>
</g>
<mask id="mask1_122_757" style="mask-type:alpha" maskUnits="userSpaceOnUse" x="0" y="12" width="16" height="9">
<path d="M8.48264 13.4364H8.45563L7.61817 13.5985L0 15.0306V20.0566L15.6145 17.0842V12.0312L8.48264 13.4364Z" fill="white"/>
</mask>
<g mask="url(#mask1_122_757)">
<path d="M7.80823 14.5803L8.55153 14.4364H8.58021L8.67594 14.4175L14.6145 13.2475V16.2566L1 18.8482V15.8601L7.80292 14.5813L7.80292 14.5813L7.80823 14.5803Z" stroke="white" stroke-width="2"/>
</g>
<path d="M62.1604 3.88812H58.2516V10.1666C57.8607 9.58033 56.6392 8.48097 54.4405 8.48097C50.947 8.48097 48.7483 11.1927 48.7483 14.7351C48.7483 18.2774 50.947 21.0136 54.4405 21.0136C56.0529 21.0136 57.4943 20.4029 58.3982 19.1813L58.4715 19.1569L58.4471 20.7449H62.1604V3.88812ZM58.3738 14.6862C58.3738 16.5429 57.25 17.8133 55.5643 17.8133C53.8786 17.8133 52.7304 16.5429 52.7304 14.6862C52.7304 12.8295 53.8786 11.5592 55.5643 11.5592C57.25 11.5592 58.3738 12.8295 58.3738 14.6862ZM75.643 13.9533C75.643 11.9256 75.1299 10.753 74.2016 9.87349C73.2488 8.994 71.954 8.48097 69.7065 8.48097C67.4589 8.48097 65.5778 9.18945 64.5517 9.70248L65.5778 12.2432C66.1885 11.8523 67.7276 11.1683 69.2667 11.1683C70.8302 11.1683 71.7342 11.8279 71.7342 13.0983V13.367L68.7048 13.4891C66.4817 13.5869 64.0142 14.4908 64.0142 17.1781C64.0142 19.8654 66.2618 21.0136 68.3872 21.0136C70.3416 21.0136 71.3188 19.9875 71.8319 19.4745L71.9052 20.7449H75.643V13.9533ZM71.7586 17.4224C71.5143 17.8377 70.8058 18.5217 69.7553 18.5217C68.6804 18.5217 67.9231 17.9598 67.9231 17.0315C67.9231 16.1276 68.6315 15.6146 69.8286 15.5657L71.7586 15.4435V17.4224ZM86.1971 8.70084C86.1971 8.70084 85.7818 8.48097 84.9756 8.48097C83.6808 8.48097 82.6792 9.09172 81.9952 10.4109H81.9463L81.9707 8.70084H78.0619V20.7449H81.9707V15.3947C81.9707 14.051 82.2883 13.2693 82.5815 12.8784C82.8746 12.4875 83.5098 11.9989 84.3893 11.9989C85.0734 11.9989 85.5864 12.1699 85.8063 12.2921H85.9773L86.1971 8.70084ZM89.4883 3.88812L87.5584 7.43048H90.3434L92.8353 3.88812H89.4883ZM91.4672 8.70084H87.5584V20.7449H91.4672V8.70084ZM106.749 14.7595C106.749 10.8751 103.891 8.48097 100.08 8.48097C96.2684 8.48097 93.3857 10.8751 93.3857 14.7595C93.3857 18.6439 96.2684 21.0136 100.08 21.0136C103.891 21.0136 106.749 18.6439 106.749 14.7595ZM102.816 14.6862C102.816 16.4696 101.79 17.8133 100.08 17.8133C98.345 17.8133 97.3434 16.4696 97.3434 14.6862C97.3434 12.9028 98.345 11.5592 100.08 11.5592C101.79 11.5592 102.816 12.9028 102.816 14.6862ZM125.291 14.3686C125.291 10.8507 122.823 8.48097 119.256 8.48097C115.69 8.48097 112.758 10.753 112.758 14.7351C112.758 18.7172 115.47 21.0136 119.183 21.0136C122.921 21.0136 124.509 19.3524 124.9 19.0592L123.361 17.0315C122.677 17.4957 121.309 18.1797 119.745 18.1797C118.157 18.1797 116.838 17.398 116.667 15.6634H125.242C125.242 15.6634 125.291 14.9549 125.291 14.3686ZM116.691 13.4403C116.74 12.2921 117.571 11.0217 119.183 11.0217C120.82 11.0217 121.626 12.3409 121.651 13.4403H116.691ZM131.096 3.88812H127.187V20.7449H131.096V3.88812ZM137.996 5.28063C137.996 4.08356 137.092 3.25294 135.772 3.25294C134.453 3.25294 133.549 4.08356 133.549 5.28063C133.549 6.50214 134.453 7.30833 135.772 7.30833C137.092 7.30833 137.996 6.50214 137.996 5.28063ZM137.727 8.70084H133.818V20.7449H137.727V8.70084ZM150.785 17.6423H144.483L150.492 10.8996V8.72527H139.719V11.6813H145.533L139.45 18.4973V20.7449H150.785V17.6423ZM164.77 14.7595C164.77 10.8751 161.912 8.48097 158.101 8.48097C154.29 8.48097 151.407 10.8751 151.407 14.7595C151.407 18.6439 154.29 21.0136 158.101 21.0136C161.912 21.0136 164.77 18.6439 164.77 14.7595ZM160.837 14.6862C160.837 16.4696 159.811 17.8133 158.101 17.8133C156.366 17.8133 155.365 16.4696 155.365 14.6862C155.365 12.9028 156.366 11.5592 158.101 11.5592C159.811 11.5592 160.837 12.9028 160.837 14.6862ZM178.493 13.6357C178.493 10.7285 177.589 8.48097 174.095 8.48097C172.361 8.48097 171.262 9.36046 170.602 10.4354H170.553L170.577 8.70084H166.669V20.7449H170.577V14.7839C170.577 13.0494 171.042 11.6813 172.727 11.6813C174.34 11.6813 174.584 12.8784 174.584 14.4663V20.7449H178.493V13.6357ZM193.711 3.88812H189.802V10.1666C189.411 9.58033 188.189 8.48097 185.991 8.48097C182.497 8.48097 180.299 11.1927 180.299 14.7351C180.299 18.2774 182.497 21.0136 185.991 21.0136C187.603 21.0136 189.045 20.4029 189.948 19.1813L190.022 19.1569L189.997 20.7449H193.711V3.88812ZM189.924 14.6862C189.924 16.5429 188.8 17.8133 187.115 17.8133C185.429 17.8133 184.281 16.5429 184.281 14.6862C184.281 12.8295 185.429 11.5592 187.115 11.5592C188.8 11.5592 189.924 12.8295 189.924 14.6862ZM209.05 14.7595C209.05 10.8751 206.192 8.48097 202.38 8.48097C198.569 8.48097 195.687 10.8751 195.687 14.7595C195.687 18.6439 198.569 21.0136 202.38 21.0136C206.192 21.0136 209.05 18.6439 209.05 14.7595ZM205.117 14.6862C205.117 16.4696 204.091 17.8133 202.38 17.8133C200.646 17.8133 199.644 16.4696 199.644 14.6862C199.644 12.9028 200.646 11.5592 202.38 11.5592C204.091 11.5592 205.117 12.9028 205.117 14.6862Z" fill="white"/>
</svg>
