<svg class="social__icon" width="30" height="19" viewBox="0 0 30 19" fill="none" xmlns="http://www.w3.org/2000/svg">
<path d="M29.7001 12.4416C29.6055 12.4343 29.5037 12.4271 29.4092 12.4271C26.3265 12.4271 23.2366 12.4271 20.1539 12.4271C20.0521 12.4271 19.943 12.4271 19.8412 12.4271C19.7976 14.0775 20.6992 15.3498 22.3059 15.6624C23.2656 15.8515 24.2035 15.8151 25.0251 15.2117C25.3159 15.0008 25.5122 14.6737 25.7667 14.4119C25.8467 14.3319 25.9557 14.2374 26.0575 14.2374C27.1626 14.2229 28.2605 14.2301 29.3656 14.2301C29.402 14.2301 29.4383 14.2447 29.4965 14.252C29.4601 14.7318 29.2638 15.1535 29.0239 15.5534C27.9697 17.2692 26.4211 18.2289 24.4362 18.4979C22.5459 18.7597 20.7646 18.4979 19.0996 17.5092C17.6528 16.644 16.7731 15.3934 16.4459 13.743C16.0824 11.8745 16.1042 10.0278 16.8094 8.23924C17.5946 6.26893 19.0778 5.07657 21.1281 4.60398C22.9748 4.18229 24.7852 4.32043 26.4865 5.20017C27.8388 5.89814 28.7258 7.03234 29.2129 8.45009C29.4383 9.10443 29.5037 9.82422 29.6419 10.5076C29.6564 10.5949 29.6782 10.6749 29.6928 10.7621C29.7001 11.3219 29.7001 11.8818 29.7001 12.4416ZM19.9067 10.0932C21.9424 10.0932 23.9563 10.0932 25.9703 10.0932C25.9485 8.55915 24.9451 7.45403 23.3165 7.29408C21.4407 7.10504 20.2193 8.1011 19.9067 10.0932Z" fill="white"/>
<path d="M12.2799 8.38478C12.7089 8.64652 13.1524 8.86464 13.5377 9.16273C14.4465 9.86797 14.8827 10.8495 14.9991 11.9619C15.1736 13.5396 14.7882 14.9719 13.7485 16.2006C12.8979 17.2039 11.7928 17.7638 10.5059 17.9455C9.79339 18.0473 9.06633 18.12 8.33928 18.12C5.63465 18.1418 2.92275 18.1273 0.218116 18.1273C0.152681 18.1273 0.0872462 18.1273 0 18.1273C0 12.1 0 6.08003 0 0.0164149C0.0945167 0.0164149 0.196304 0.0164149 0.298091 0.0164149C3.10451 0.0164149 5.91093 0.00914442 8.71008 0.0164149C9.88063 0.0164149 11.0221 0.161825 12.0909 0.699844C13.4941 1.40508 14.2575 2.5611 14.4102 4.10972C14.4611 4.66955 14.432 5.25119 14.3375 5.81102C14.1557 6.9016 13.5159 7.68681 12.5562 8.21756C12.4689 8.26118 12.389 8.31208 12.3017 8.36297C12.2944 8.37024 12.2799 8.38478 12.2799 8.38478ZM3.6498 14.9646C3.69342 14.9791 3.70796 14.9864 3.72978 14.9864C5.34383 14.9864 6.95788 14.9937 8.57194 14.9719C9.18266 14.9646 9.78612 14.8483 10.2951 14.4629C11.0294 13.9176 11.3638 12.7544 11.0875 11.722C10.9421 11.1767 10.6368 10.7259 10.1133 10.5369C9.62617 10.3551 9.09542 10.2024 8.57921 10.1879C7.01605 10.137 5.44562 10.1661 3.88246 10.1588C3.80975 10.1588 3.73705 10.1733 3.6498 10.1806C3.6498 11.7874 3.6498 13.3724 3.6498 14.9646ZM3.65707 3.18636C3.65707 4.5096 3.65707 5.82556 3.65707 7.14152C5.31475 7.14152 6.94334 7.14879 8.57921 7.13425C8.79733 7.13425 9.02271 7.08336 9.23356 7.02519C9.96788 6.83616 10.5786 6.50899 10.724 5.68015C10.7676 5.41841 10.7822 5.14213 10.7749 4.87312C10.7458 4.09518 10.3169 3.5717 9.56073 3.38267C9.26991 3.30996 8.97182 3.22998 8.681 3.22271C7.03786 3.18636 5.39472 3.17909 3.75159 3.16455C3.7225 3.16455 3.69342 3.17909 3.65707 3.18636Z" fill="white"/>
<path d="M26.8282 3.09913C24.189 3.09913 21.6007 3.09913 18.9906 3.09913C18.9906 2.35754 18.9906 1.63049 18.9906 0.881622C21.608 0.881622 24.2181 0.881622 26.8282 0.881622C26.8282 1.63776 26.8282 2.36481 26.8282 3.09913Z" fill="white"/>
</svg>
