<svg class="social__icon" width="21" height="21" viewBox="0 0 21 21" fill="none" xmlns="http://www.w3.org/2000/svg">
<path d="M11.7033 20.5779C10.2737 20.5779 8.871 20.5779 7.44812 20.5779C7.44812 16.0139 7.44812 11.45 7.44812 6.8659C8.79046 6.8659 10.1395 6.8659 11.5288 6.8659C11.5288 7.47666 11.5288 8.08072 11.5288 8.69148C11.8241 8.34918 12.0725 8.00017 12.3745 7.71157C13.1262 7.00013 14.0457 6.6377 15.0659 6.54374C15.9451 6.4632 16.8244 6.5236 17.6768 6.79207C19.0929 7.23504 19.9319 8.22837 20.348 9.62441C20.6232 10.5439 20.7239 11.497 20.7306 12.45C20.7507 15.1079 20.744 17.759 20.744 20.4168C20.744 20.4504 20.7373 20.4839 20.7306 20.5376C19.3211 20.5376 17.9117 20.5376 16.4686 20.5376C16.4686 20.437 16.4686 20.343 16.4686 20.2423C16.4686 17.9738 16.4754 15.7052 16.4619 13.4367C16.4619 12.9601 16.415 12.4836 16.3277 12.0138C16.0659 10.6043 15.1532 10.1144 13.8309 10.2754C12.643 10.4231 11.9919 11.1211 11.8107 12.4165C11.7436 12.8863 11.7168 13.3695 11.7101 13.8394C11.6966 15.9804 11.7033 18.1281 11.7033 20.2692C11.7033 20.3631 11.7033 20.4638 11.7033 20.5779Z" fill="white"/>
<path d="M4.74338 20.5781C3.32722 20.5781 1.92447 20.5781 0.508301 20.5781C0.508301 16.0074 0.508301 11.4368 0.508301 6.85938C1.92447 6.85938 3.32722 6.85938 4.74338 6.85938C4.74338 11.4233 4.74338 15.9873 4.74338 20.5781Z" fill="white"/>
<path d="M5.08569 2.46332C5.0924 3.82579 3.98497 4.96007 2.63592 4.96678C1.28015 4.97349 0.145874 3.83921 0.145874 2.47003C0.145874 1.12769 1.2533 0.0135442 2.60236 0.000120755C3.96483 -0.0133026 5.07897 1.09413 5.08569 2.46332Z" fill="white"/>
</svg>
