<svg width="1920" height="1028" viewBox="0 0 1920 1028" fill="none" xmlns="http://www.w3.org/2000/svg">
<path d="M-204.406 849.484C-102.257 1299.46 176.046 1642.21 977.229 1310.61L1593.77 1040.39L2072 831.776L1971.55 389.325L1503.5 591.872L1332.45 666.342L1025.27 799.514L800.833 897.756C524.228 1013.22 324.539 956.216 266.306 692.055C211.714 444.874 332.789 208.366 672.964 38.0806L830.919 -45.1216L1076.71 -162.769L1775.01 -477.628L1681.11 -890L776.326 -474.959C186.965 -208.858 -373.523 104.788 -204.406 849.484Z" stroke="url(#paint0_linear_3_10)" stroke-miterlimit="10"/>
<path d="M-731.75 1061.4C-573.987 1756.31 -144.168 2285.65 1093.2 1773.55L2045.4 1356.22L2784 1034.05L2628.86 350.742L1906 663.55L1641.81 778.558L1167.4 984.224L820.771 1135.94C393.575 1314.26 85.1689 1226.23 -4.76716 818.267C-89.0822 436.53 97.9098 71.2765 623.286 -191.706L867.238 -320.201L1246.84 -501.891L2325.33 -988.147L2180.3 -1625L782.923 -984.026C-127.305 -573.069 -992.94 -88.6861 -731.75 1061.4Z" stroke="#FCFF6B" stroke-miterlimit="10"/>
<path d="M1389.39 342.435L1389.63 342.192L1442.03 319.149L1442.28 319.391L1910 116.609L1836.74 -206L878 211.693L951.506 536L1389.39 342.435Z" stroke="url(#paint1_linear_3_10)" stroke-miterlimit="10"/>
<defs>
<linearGradient id="paint0_linear_3_10" x1="588" y1="491" x2="157" y2="692" gradientUnits="userSpaceOnUse">
<stop stop-color="#FCFF6B"/>
<stop offset="1" stop-color="#FCFF6B" stop-opacity="0"/>
</linearGradient>
<linearGradient id="paint1_linear_3_10" x1="1852.5" y1="-38" x2="930.5" y2="403.5" gradientUnits="userSpaceOnUse">
<stop stop-color="#FCFF6B"/>
<stop offset="1" stop-color="#FCFF6B" stop-opacity="0"/>
</linearGradient>
</defs>
</svg>
